<svg width="40" height="40" viewBox="0 0 40 40" fill="none" xmlns="http://www.w3.org/2000/svg">
<path d="M36.6596 23.0613L36.6025 22.0629L34.6058 22.1772L34.6629 23.1755L36.6596 23.0613ZM5.98318 26.7941C5.44731 26.6605 4.90457 26.9865 4.77093 27.5224L2.59318 36.255C2.45954 36.7908 2.78562 37.3336 3.32149 37.4672C3.85736 37.6009 4.40011 37.2748 4.53375 36.7389L6.46952 28.9766L14.2318 30.9124C14.7677 31.0461 15.3104 30.72 15.444 30.1841C15.5777 29.6482 15.2516 29.1055 14.7157 28.9718L5.98318 26.7941ZM35.6613 23.1184C34.6629 23.1755 34.6629 23.175 34.6629 23.1745C34.6628 23.1744 34.6628 23.1739 34.6628 23.1736C34.6628 23.1732 34.6628 23.1728 34.6628 23.1726C34.6627 23.1722 34.6627 23.1724 34.6628 23.1731C34.6628 23.1746 34.663 23.1784 34.6632 23.1844C34.6637 23.1963 34.6644 23.2171 34.6649 23.2463C34.6659 23.3046 34.6663 23.3963 34.6631 23.5176C34.6566 23.7603 34.6358 24.1201 34.5769 24.5669C34.459 25.4621 34.1902 26.6955 33.5879 28.0337C32.3974 30.6787 29.8702 33.8164 24.3957 35.5452L24.9979 37.4524C31.0454 35.5427 34.0004 31.9901 35.4117 28.8546C36.1102 27.3025 36.4222 25.8731 36.5598 24.828C36.6287 24.3047 36.6543 23.8749 36.6624 23.5706C36.6664 23.4184 36.6661 23.2972 36.6646 23.2111C36.6638 23.168 36.6628 23.1337 36.6618 23.1086C36.6613 23.096 36.6609 23.0857 36.6605 23.0778C36.6603 23.0739 36.6601 23.0705 36.66 23.0678C36.6599 23.0664 36.6599 23.0651 36.6598 23.0641C36.6598 23.0635 36.6597 23.0628 36.6597 23.0626C36.6597 23.0619 36.6596 23.0613 35.6613 23.1184ZM24.3957 35.5452C19.0694 37.2272 14.6739 35.2355 11.5229 32.7151C9.94775 31.4553 8.71029 30.0812 7.86553 29.0185C7.44418 28.4885 7.12325 28.0394 6.90943 27.7257C6.80258 27.5689 6.72266 27.4463 6.67051 27.3645C6.64444 27.3237 6.62532 27.2931 6.61327 27.2736C6.60724 27.2639 6.60298 27.2569 6.6005 27.2528C6.59926 27.2508 6.59846 27.2495 6.59811 27.2489C6.59794 27.2486 6.59787 27.2485 6.59792 27.2486C6.59795 27.2486 6.59807 27.2488 6.59808 27.2488C6.59823 27.2491 6.5984 27.2494 5.74121 27.7644C4.88402 28.2794 4.88425 28.2798 4.88451 28.2802C4.88464 28.2804 4.88493 28.2809 4.88518 28.2813C4.88568 28.2821 4.8863 28.2832 4.88703 28.2844C4.88849 28.2868 4.89041 28.29 4.89279 28.2938C4.89754 28.3016 4.90412 28.3124 4.91251 28.3259C4.92928 28.353 4.95332 28.3915 4.9845 28.4404C5.04687 28.5381 5.13791 28.6777 5.25682 28.8522C5.49453 29.2009 5.84436 29.69 6.29995 30.2631C7.20904 31.4067 8.55009 32.8984 10.2736 34.277C13.7199 37.0335 18.8021 39.409 24.9979 37.4524L24.3957 35.5452Z" fill="#1F1F43"/>
<path d="M4.00318 20.2311L4.04503 21.2302L6.04328 21.1465L6.00143 20.1474L4.00318 20.2311ZM34.8238 16.2331C35.354 16.3878 35.9092 16.0834 36.0638 15.5532L38.5843 6.91331C38.7389 6.38312 38.4345 5.82794 37.9043 5.67328C37.3741 5.51861 36.8189 5.82303 36.6643 6.35322L34.4239 14.0331L26.744 11.7927C26.2138 11.6381 25.6587 11.9425 25.504 12.4727C25.3493 13.0029 25.6537 13.558 26.1839 13.7127L34.8238 16.2331ZM5.00231 20.1893C6.00143 20.1474 6.00145 20.1479 6.00147 20.1484C6.00147 20.1485 6.00149 20.1489 6.0015 20.1491C6.00151 20.1495 6.00152 20.1497 6.00153 20.1498C6.00153 20.15 6.00151 20.1495 6.00148 20.1484C6.00141 20.1462 6.00126 20.1415 6.00109 20.1344C6.00074 20.1202 6.0003 20.0963 6.00011 20.0633C5.99975 19.9971 6.00045 19.8944 6.00517 19.7593C6.01463 19.4889 6.04017 19.0902 6.1052 18.5963C6.2355 17.6066 6.52275 16.2471 7.14846 14.777C8.38847 11.8634 10.9738 8.46617 16.4635 6.64285L15.8331 4.74481C9.73082 6.77159 6.7432 10.6221 5.3082 13.9937C4.5964 15.6662 4.27064 17.2086 4.12231 18.3352C4.04802 18.8995 4.01783 19.3625 4.0064 19.6894C4.00068 19.8529 3.99964 19.9826 4.00014 20.0743C4.0004 20.1201 4.00104 20.1565 4.00167 20.1828C4.00199 20.1959 4.00231 20.2066 4.00257 20.2147C4.00271 20.2187 4.00283 20.2221 4.00293 20.2249C4.00299 20.2262 4.00303 20.2274 4.00307 20.2285C4.0031 20.229 4.00312 20.2297 4.00313 20.2299C4.00316 20.2305 4.00318 20.2311 5.00231 20.1893ZM16.4635 6.64285C21.7891 4.87403 26.1648 7.03869 29.3149 9.79257C30.8877 11.1676 32.1213 12.6647 32.9633 13.8229C33.3832 14.4006 33.7028 14.89 33.9159 15.2322C34.0224 15.4032 34.1022 15.5372 34.1543 15.6267C34.1804 15.6714 34.1995 15.705 34.2117 15.7266C34.2178 15.7373 34.2221 15.7451 34.2246 15.7497C34.2259 15.752 34.2268 15.7535 34.2272 15.7542C34.2274 15.7546 34.2274 15.7547 34.2274 15.7547C34.2274 15.7546 34.2273 15.7545 34.2273 15.7545C34.2272 15.7542 34.227 15.7539 35.1039 15.2731C35.9807 14.7924 35.9805 14.792 35.9802 14.7915C35.9801 14.7913 35.9798 14.7908 35.9796 14.7904C35.9791 14.7895 35.9786 14.7885 35.9779 14.7872C35.9765 14.7847 35.9746 14.7813 35.9723 14.7772C35.9677 14.7689 35.9613 14.7574 35.9531 14.7429C35.9367 14.7139 35.9131 14.6725 35.8824 14.6198C35.821 14.5145 35.7312 14.3637 35.6137 14.175C35.3788 13.7979 35.0326 13.2682 34.581 12.647C33.6801 11.4076 32.3483 9.78792 30.6312 8.28683C27.2015 5.28852 22.0994 2.66353 15.8331 4.74481L16.4635 6.64285Z" fill="#1F1F43"/>
</svg>
