<svg xmlns="http://www.w3.org/2000/svg" height="30" viewBox="0 -960 960 960" width="30"><path d="M481.154-131.668q-145.749 0-247.041-101.291Q132.822-334.251 132.822-480q0-139.852 94.24-239.425 94.239-99.573 231.783-107.65 1.778 0 6.453.243 4.674.244 15.673.775-22.64 31.136-34.729 71.212-12.09 40.077-12.09 79.179 0 100.667 71.667 171.667 71.667 71.001 172.668 71.001 40.609 0 77.099-10.179 36.489-10.18 70.874-34.999-.103 4.589.641 11.255.743 6.667.743 9.23-7.692 137.544-107.432 231.783-99.74 94.24-239.258 94.24Zm0-67.588q87.821 0 159.064-50.167 71.244-50.167 99.629-125.603-13.642 4.308-29.881 6.962-16.24 2.654-30.479 2.654-130.032 0-221.477-90.666-91.446-90.666-91.446-219.59 0-15.821 2.116-31.411 2.115-15.59 8.5-33.103-79.411 32.436-128.09 103.644Q200.41-565.328 200.41-480q0 117.127 81.808 198.935 81.809 81.809 198.936 81.809Zm-11.026-270.129Z" fill="#ffffff"/></svg>