<svg width="30" height="30" viewBox="0 0 30 30" fill="none" xmlns="http://www.w3.org/2000/svg">
<path d="M15 26.25C21.2132 26.25 26.25 21.2132 26.25 15C26.25 8.7868 21.2132 3.75 15 3.75C8.7868 3.75 3.75 8.7868 3.75 15C3.75 21.2132 8.7868 26.25 15 26.25Z" stroke="#D9DDE7" stroke-width="2" stroke-miterlimit="10"/>
<path d="M9.375 16.4062C10.1517 16.4062 10.7812 15.7767 10.7812 15C10.7812 14.2233 10.1517 13.5938 9.375 13.5938C8.59835 13.5938 7.96875 14.2233 7.96875 15C7.96875 15.7767 8.59835 16.4062 9.375 16.4062Z" fill="#D9DDE7"/>
<path d="M15 16.4062C15.7767 16.4062 16.4062 15.7767 16.4062 15C16.4062 14.2233 15.7767 13.5938 15 13.5938C14.2233 13.5938 13.5938 14.2233 13.5938 15C13.5938 15.7767 14.2233 16.4062 15 16.4062Z" fill="#D9DDE7"/>
<path d="M20.625 16.4062C21.4017 16.4062 22.0312 15.7767 22.0312 15C22.0312 14.2233 21.4017 13.5938 20.625 13.5938C19.8483 13.5938 19.2188 14.2233 19.2188 15C19.2188 15.7767 19.8483 16.4062 20.625 16.4062Z" fill="#D9DDE7"/>
</svg>
