<?xml version="1.0" encoding="utf-8"?>
<!-- Generator: Adobe Illustrator 27.4.1, SVG Export Plug-In . SVG Version: 6.00 Build 0)  -->
<svg version="1.1" id="Outline" xmlns="http://www.w3.org/2000/svg" xmlns:xlink="http://www.w3.org/1999/xlink" x="0px" y="0px"
	 viewBox="0 0 32 32" enable-background="new 0 0 32 32" xml:space="preserve">
<g>
	<path d="M29,13v-3c0-3.85999-3.14001-7-7-7s-7,3.14001-7,7v3c-1.29999,0-2.40002,0.83997-2.82001,2H9.82001
		C9.51001,14.14996,8.84998,13.48999,8,13.17999V5.82001C9.15997,5.39996,10,4.29999,10,3c0-1.65002-1.34998-3-3-3
		C5.70001,0,4.59998,0.83997,4.17999,2H1c-1.29999,0-1.26001,2,0,2h3.17999C4.48999,4.84998,5.15002,5.51001,6,5.82001v7.35999
		C5.15002,13.48999,4.48999,14.14996,4.17999,15H1c-1.28998,0-1.28998,2,0,2h3.17999c0.31,0.84998,0.97003,1.51001,1.82001,1.82001
		v7.35999C5.15002,26.48999,4.48999,27.14996,4.17999,28C3.02002,28,1,28,1,28c-1.28998,0-1.28998,2,0,2h3.17999
		C4.59998,31.15997,5.70001,32,7,32c1.65002,0,3-1.35004,3-3c0-1.29999-0.84003-2.40002-2-2.82001v-7.35999
		c0.84998-0.31,1.51001-0.97003,1.82001-1.82001H12v9c0,1.64996,1.34998,3,3,3h14c1.65002,0,3-1.35004,3-3V16
		C32,14.34998,30.65002,13,29,13z M7,2c0.54999,0,1,0.45001,1,1S7.54999,4,7,4S6,3.54999,6,3S6.45001,2,7,2z M7,30
		c-0.54999,0-1-0.45001-1-1s0.45001-1,1-1s1,0.45001,1,1S7.54999,30,7,30z M7,17c-0.54999,0-1-0.45001-1-1s0.45001-1,1-1
		s1,0.45001,1,1S7.54999,17,7,17z M17,10c0-2.76001,2.23999-5,5-5s5,2.23999,5,5v3H17V10z M30,26c0,0.54999-0.45001,1-1,1H15
		c-0.54999,0-1-0.45001-1-1V16c0-0.54999,0.45001-1,1-1h14c0.54999,0,1,0.45001,1,1V26z"/>
	<path d="M22,17c-1.6543,0-3,1.3457-3,3c0,1.30194,0.8385,2.40155,2,2.81567C21,23.36908,21,23.9989,21,24c0,1.25641,2,1.26251,2,0
		c0-0.00153,0-0.63104,0-1.18427c1.1615-0.41412,2-1.51379,2-2.81573C25,18.3457,23.6543,17,22,17z M22,21c-0.55176,0-1-0.44873-1-1
		s0.44824-1,1-1s1,0.44873,1,1S22.55176,21,22,21z"/>
</g>
</svg>
