<svg xmlns="http://www.w3.org/2000/svg" height="30" viewBox="0 -960 960 960" width="30"><path d="M479.813-359.256q50.315 0 85.956-34.954 35.641-34.954 35.641-85.603 0-50.315-35.454-85.956-35.454-35.641-85.769-35.641-50.315 0-85.623 35.454-35.308 35.454-35.308 85.769 0 50.315 34.954 85.623 34.954 35.308 85.603 35.308Zm.142 67.588q-78.967 0-133.627-54.66-54.66-54.66-54.66-133.627 0-78.967 54.66-134.005t133.627-55.038q78.967 0 134.005 55.038t55.038 134.005q0 78.967-55.038 133.627-55.038 54.66-134.005 54.66ZM75.128-446.539q-13.696 0-23.578-9.918-9.883-9.918-9.883-23.666 0-13.748 9.883-23.876 9.882-10.128 23.578-10.128h99.745q13.979 0 24.053 10.113Q209-493.902 209-479.865q0 13.753-10.074 23.539-10.074 9.787-24.053 9.787H75.128Zm709.999 0q-13.695 0-23.578-9.918-9.882-9.918-9.882-23.666 0-13.748 9.882-23.876 9.883-10.128 23.578-10.128h99.745q13.979 0 24.053 10.113 10.074 10.112 10.074 24.149 0 13.753-10.074 23.539-10.074 9.787-24.053 9.787h-99.745ZM479.865-751.667q-13.753 0-23.539-9.882-9.787-9.883-9.787-23.578v-99.745q0-13.979 9.918-24.053 9.918-10.074 23.666-10.074 13.748 0 23.876 10.074 10.128 10.074 10.128 24.053v99.745q0 13.695-10.113 23.578-10.112 9.882-24.149 9.882Zm0 710q-13.753 0-23.539-9.883-9.787-9.882-9.787-23.578v-99.745q0-13.979 9.918-24.053Q466.375-209 480.123-209q13.748 0 23.876 10.074 10.128 10.074 10.128 24.053v99.745q0 13.696-10.113 23.578-10.112 9.883-24.149 9.883Zm-238.53-631.051-57.078-55.693q-10.102-10.23-10.193-23.895-.09-13.665 10.241-24.173 9.724-9.751 23.196-9.751 13.473 0 24.755 9.82l56.077 56.693q9.872 10.776 9.872 24.17 0 13.393-9.679 22.902-9.013 10.799-23.192 10.632-14.179-.167-23.999-10.705Zm487.076 488.461-56.078-56.693q-10.538-9.854-10.038-22.933t10.372-24.45q8.705-9.821 22.308-9.609 13.604.212 24.357 9.993l57.078 55.693q9.435 10.897 9.526 24.562.09 13.665-9.574 23.506-10.68 10.418-24.008 10.418t-23.943-10.487Zm-56.078-487.884q-10.487-9.256-10.192-22.98.295-13.724 10.577-24.211l55.693-57.078q10.23-9.435 23.895-9.526 13.665-.09 24.173 9.574 9.751 10.68 9.751 24.008t-9.82 23.943l-56.693 56.078q-10.744 10.538-24.074 10.538-13.331 0-23.31-10.346ZM184.188-184.104q-10.418-9.925-10.418-23.397 0-13.473 10.487-24.755l56.693-56.077q9.789-9.615 22.945-9.449 13.156.167 24.028 9.449 9.846 9.705 9.551 23.441-.295 13.737-9.525 23.557l-55.693 57.078q-11.282 10.487-24.755 10.577-13.472.091-23.313-10.424ZM480-480Z" fill="#ffffff"/></svg>