<svg width="40" height="40" viewBox="0 0 40 40" fill="none" xmlns="http://www.w3.org/2000/svg">
<path d="M20.0667 14.5333C20.0667 16.3409 17.163 17.8 13.5333 17.8C9.9037 17.8 7 16.3409 7 14.5333" stroke="#182233" stroke-width="1.5" stroke-linecap="round" stroke-linejoin="round"/>
<path d="M33.1333 25.9667C33.1333 26.8705 30.2296 27.6 26.6 27.6C22.9704 27.6 20.0667 26.8705 20.0667 25.9667" stroke="#182233" stroke-width="1.5" stroke-linecap="round" stroke-linejoin="round"/>
<path d="M13.5333 12.9C17.1416 12.9 20.0667 11.8031 20.0667 10.45C20.0667 9.0969 17.1416 8 13.5333 8C9.92507 8 7 9.0969 7 10.45C7 11.8031 9.92507 12.9 13.5333 12.9Z" stroke="#182233" stroke-width="1.5" stroke-linecap="round" stroke-linejoin="round"/>
<path d="M26.6 22.7C30.2083 22.7 33.1333 21.6031 33.1333 20.25C33.1333 18.8969 30.2083 17.8 26.6 17.8C22.9918 17.8 20.0667 18.8969 20.0667 20.25C20.0667 21.6031 22.9918 22.7 26.6 22.7Z" stroke="#182233" stroke-width="1.5" stroke-linecap="round" stroke-linejoin="round"/>
<path d="M7 11.2667V20.6823C7 21.7988 9.9037 22.7 13.5333 22.7C17.163 22.7 20.0667 21.7988 20.0667 20.6823V11.2667" stroke="#182233" stroke-width="1.5" stroke-linecap="round" stroke-linejoin="round"/>
<path d="M20.0667 21.0667V30.4824C20.0667 31.5988 22.9704 32.5 26.6 32.5C30.2296 32.5 33.1333 31.5988 33.1333 30.4824V21.0667" stroke="#182233" stroke-width="1.5" stroke-linecap="round" stroke-linejoin="round"/>
<path d="M20.0667 25.9667C20.0667 26.8705 17.163 27.6 13.5333 27.6C9.9037 27.6 7 26.8705 7 25.9667" stroke="#182233" stroke-width="1.5" stroke-linecap="round" stroke-linejoin="round"/>
<path d="M7 19.4333V30.1941C7 31.47 9.9037 32.5 13.5333 32.5C17.163 32.5 20.0667 31.47 20.0667 30.1941V19.4333" stroke="#182233" stroke-width="1.5" stroke-linecap="round" stroke-linejoin="round"/>
</svg>
