<?xml version="1.0" encoding="UTF-8"?>
<svg xmlns="http://www.w3.org/2000/svg" xmlns:xlink="http://www.w3.org/1999/xlink" width="40px" height="40px" viewBox="0 0 40 40" version="1.1">
<g id="surface1">
<path style=" stroke:none;fill-rule:nonzero;fill:white;fill-opacity:1;" d="M 34.214844 5.453125 L 5.785156 5.453125 C 5.601562 5.453125 5.453125 5.609375 5.453125 5.792969 L 5.453125 8.328125 C 5.453125 8.515625 5.601562 8.667969 5.785156 8.667969 L 34.214844 8.667969 C 34.398438 8.667969 34.546875 8.515625 34.546875 8.328125 L 34.546875 5.792969 C 34.546875 5.609375 34.398438 5.453125 34.214844 5.453125 Z M 20.257812 13.359375 C 20.195312 13.277344 20.097656 13.234375 20 13.234375 C 19.902344 13.234375 19.804688 13.277344 19.742188 13.359375 L 15.167969 19.351562 C 15.089844 19.453125 15.078125 19.59375 15.128906 19.710938 C 15.183594 19.824219 15.296875 19.898438 15.421875 19.898438 L 18.441406 19.898438 L 18.441406 34.207031 C 18.441406 34.390625 18.589844 34.546875 18.769531 34.546875 L 21.222656 34.546875 C 21.402344 34.546875 21.546875 34.390625 21.546875 34.207031 L 21.546875 19.902344 L 24.578125 19.902344 C 24.847656 19.902344 25 19.578125 24.832031 19.359375 Z M 20.257812 13.359375 "/>
</g>
</svg>
