<svg width="40" height="40" viewBox="0 0 40 40" fill="none" xmlns="http://www.w3.org/2000/svg">
<path d="M3 25.3211V15.5245C3 14.2095 4.06606 13.1434 5.38112 13.1434C6.69618 13.1434 7.76224 14.2095 7.76224 15.5245V25.3211C7.76224 26.6362 6.69618 27.7023 5.38112 27.7023C4.06606 27.7023 3 26.6362 3 25.3211Z" stroke="#182233" stroke-width="1.5"/>
<path d="M7.76239 15.366H12.7065C14.2492 15.366 15.7323 15.9587 16.8413 17.031C18.7318 18.8589 21.6359 21.6989 22.7294 22.9402C24.4076 24.8451 21.8677 26.9314 20.2803 25.5708C18.6929 24.2102 14.5656 21.3075 14.5656 21.3075" stroke="#182233" stroke-width="1.5"/>
<path d="M7.76239 26.4426H9.07365C10.7791 26.4426 12.4047 27.1992 13.8647 28.0806C14.0254 28.1777 14.1952 28.2754 14.3741 28.3727C16.0706 29.2958 17.2958 30.2075 19.2271 30.197C21.1063 30.1867 22.6677 30.197 24.8158 29.2445C26.9638 28.2921 34.1941 25.5456 36.1897 24.0942C38.1853 22.6428 36.1897 19.2413 33.5138 20.6019C30.8379 21.9625 22.3666 25.7976 22.3666 25.7976" stroke="#182233" stroke-width="1.5"/>
<circle cx="32.4665" cy="9.66675" r="2.65" stroke="#182233" stroke-width="1.5"/>
<circle cx="25.6668" cy="16.4667" r="2.65" stroke="#182233" stroke-width="1.5"/>
<circle cx="23.4" cy="7.39997" r="2.65" stroke="#182233" stroke-width="1.5"/>
</svg>
