<svg width="28" height="28" viewBox="0 0 28 28" fill="none" xmlns="http://www.w3.org/2000/svg">
<rect width="28" height="28" rx="6" fill="#E2E5EC"/>
<path d="M14 4.24658C11.6255 4.24668 9.32849 5.0917 7.51999 6.63043C5.71149 8.16916 4.50953 10.3012 4.12916 12.6451C3.74879 14.9889 4.21485 17.3917 5.44393 19.4233C6.67301 21.455 8.58491 22.9831 10.8375 23.7341C11.3375 23.8216 11.525 23.5216 11.525 23.2591C11.525 23.0216 11.5125 22.2341 11.5125 21.3966C9.00003 21.8591 8.35003 20.7841 8.15003 20.2216C7.9281 19.6745 7.5763 19.1897 7.12503 18.8091C6.77503 18.6216 6.27503 18.1591 7.11252 18.1466C7.4323 18.1813 7.73901 18.2926 8.00666 18.471C8.2743 18.6494 8.49499 18.8897 8.65003 19.1716C8.7868 19.4173 8.97071 19.6336 9.19122 19.8081C9.41173 19.9826 9.6645 20.1118 9.93506 20.1885C10.2056 20.2651 10.4886 20.2876 10.7679 20.2547C11.0472 20.2218 11.3172 20.134 11.5625 19.9966C11.6058 19.4882 11.8324 19.0129 12.2 18.6591C9.97503 18.4091 7.65003 17.5466 7.65003 13.7216C7.63597 12.7278 8.00271 11.7662 8.67503 11.0341C8.36931 10.1703 8.40508 9.2224 8.77503 8.38411C8.77503 8.38411 9.6125 8.1216 11.525 9.40911C13.1613 8.95909 14.8887 8.95909 16.525 9.40911C18.4375 8.10911 19.275 8.38411 19.275 8.38411C19.645 9.22238 19.6808 10.1703 19.375 11.0341C20.0494 11.7649 20.4164 12.7273 20.4 13.7216C20.4 17.5591 18.0625 18.4091 15.8375 18.6591C16.0762 18.901 16.26 19.1914 16.3764 19.5106C16.4929 19.8298 16.5393 20.1704 16.5125 20.5091C16.5125 21.8466 16.5 22.9216 16.5 23.2591C16.5 23.5216 16.6875 23.8341 17.1875 23.7341C19.4362 22.977 21.3426 21.4453 22.5664 19.4126C23.7903 17.3799 24.2519 14.9784 23.8689 12.6368C23.4859 10.2952 22.2832 8.16595 20.4755 6.62909C18.6678 5.09223 16.3727 4.24782 14 4.24658Z" fill="#1F1F43"/>
</svg>
