<svg width="105" height="28" viewBox="0 0 105 28" fill="none" xmlns="http://www.w3.org/2000/svg">
<path d="M38.3684 19.5196C38.2388 19.5196 38.1277 19.467 38.0351 19.3618C37.9332 19.2663 37.8823 19.1516 37.8823 19.0178V5.97116C37.8823 5.82779 37.9332 5.70832 38.0351 5.61274C38.1277 5.51716 38.2388 5.46937 38.3684 5.46937H41.0902C41.2384 5.46937 41.3541 5.51716 41.4374 5.61274C41.53 5.70832 41.5763 5.82779 41.5763 5.97116V16.3654H47.4088C47.5569 16.3654 47.6773 16.418 47.7699 16.5231C47.8717 16.6187 47.9226 16.743 47.9226 16.8959V19.0178C47.9226 19.1611 47.8717 19.2806 47.7699 19.3762C47.6773 19.4718 47.5569 19.5196 47.4088 19.5196H38.3684ZM49.8252 7.63425C49.677 7.63425 49.5613 7.58646 49.478 7.49088C49.3854 7.38574 49.3391 7.26149 49.3391 7.11812V5.25432C49.3391 5.10139 49.3854 4.97714 49.478 4.88156C49.5798 4.77642 49.6956 4.72385 49.8252 4.72385H52.2554C52.3943 4.72385 52.5146 4.77642 52.6165 4.88156C52.709 4.97714 52.7553 5.10139 52.7553 5.25432V7.11812C52.7553 7.26149 52.709 7.38574 52.6165 7.49088C52.5146 7.58646 52.3943 7.63425 52.2554 7.63425H49.8252ZM49.8252 19.5196C49.6956 19.5196 49.5798 19.467 49.478 19.3618C49.3854 19.2663 49.3391 19.1516 49.3391 19.0178V9.58407C49.3391 9.4407 49.3854 9.32122 49.478 9.22564C49.5798 9.13006 49.6956 9.08227 49.8252 9.08227H52.2554C52.3943 9.08227 52.5146 9.13006 52.6165 9.22564C52.709 9.32122 52.7553 9.4407 52.7553 9.58407V19.0178C52.7553 19.1611 52.709 19.2806 52.6165 19.3762C52.5146 19.4718 52.3943 19.5196 52.2554 19.5196H49.8252ZM62.0874 23.3332C61.9485 23.3332 61.8282 23.2854 61.7263 23.1898C61.6338 23.0942 61.5875 22.9748 61.5875 22.8314V18.4013C60.9672 19.2806 60.0321 19.7203 58.7823 19.7203C57.5232 19.7203 56.5326 19.3045 55.8105 18.473C55.0883 17.6414 54.6995 16.504 54.644 15.0608L54.6301 14.3009L54.644 13.5554C54.6995 12.0548 55.0837 10.9031 55.7966 10.1002C56.5187 9.28777 57.5139 8.88156 58.7823 8.88156C59.4581 8.88156 60.046 9.01059 60.5459 9.26866C61.0459 9.51716 61.4579 9.86125 61.7819 10.3009V9.58407C61.7819 9.4407 61.8282 9.32122 61.9208 9.22564C62.0226 9.13006 62.143 9.08227 62.2818 9.08227H64.601C64.7398 9.08227 64.8555 9.13006 64.9481 9.22564C65.0407 9.32122 65.087 9.4407 65.087 9.58407V22.8314C65.087 22.9748 65.0407 23.0942 64.9481 23.1898C64.8555 23.2854 64.7398 23.3332 64.601 23.3332H62.0874ZM59.8933 16.9246C60.4395 16.9246 60.8515 16.7573 61.1292 16.4228C61.4069 16.0787 61.5597 15.6438 61.5875 15.1181C61.6152 14.774 61.6291 14.5303 61.6291 14.3869C61.6291 14.2245 61.6152 13.9664 61.5875 13.6127C61.5597 13.0393 61.4116 12.5709 61.1431 12.2077C60.8839 11.8541 60.4672 11.6773 59.8933 11.6773C59.31 11.6773 58.8934 11.8541 58.6434 12.2077C58.4027 12.5614 58.2638 13.0536 58.2268 13.6844C58.2083 13.8182 58.199 14.0237 58.199 14.3009C58.199 14.5781 58.2083 14.7836 58.2268 14.9174C58.2638 15.5482 58.4027 16.0405 58.6434 16.3941C58.8934 16.7477 59.31 16.9246 59.8933 16.9246ZM71.0168 19.7203C69.878 19.7203 68.9568 19.3236 68.2532 18.5303C67.5496 17.7466 67.1978 16.6331 67.1978 15.1898V9.58407C67.1978 9.4407 67.2487 9.32122 67.3506 9.22564C67.4432 9.13006 67.5543 9.08227 67.6839 9.08227H70.2807C70.4196 9.08227 70.54 9.13006 70.6418 9.22564C70.7344 9.32122 70.7807 9.4407 70.7807 9.58407V15.0608C70.7807 16.3033 71.3176 16.9246 72.3916 16.9246C72.91 16.9246 73.3174 16.7621 73.6136 16.4371C73.9006 16.1121 74.0441 15.6534 74.0441 15.0608V9.58407C74.0441 9.4407 74.095 9.32122 74.1969 9.22564C74.2895 9.13006 74.4098 9.08227 74.5579 9.08227H77.1132C77.2613 9.08227 77.3816 9.13006 77.4742 9.22564C77.5575 9.32122 77.5992 9.4407 77.5992 9.58407V19.0178C77.5992 19.1516 77.5575 19.2663 77.4742 19.3618C77.3816 19.467 77.2613 19.5196 77.1132 19.5196H74.7524C74.6042 19.5196 74.4839 19.4718 74.3913 19.3762C74.2895 19.2806 74.2385 19.1611 74.2385 19.0178V18.2579C73.5627 19.2328 72.4888 19.7203 71.0168 19.7203ZM80.3072 7.63425C80.1683 7.63425 80.0526 7.58646 79.96 7.49088C79.8674 7.38574 79.8211 7.26149 79.8211 7.11812V5.25432C79.8211 5.10139 79.8674 4.97714 79.96 4.88156C80.0618 4.77642 80.1776 4.72385 80.3072 4.72385H82.7374C82.8763 4.72385 82.9966 4.77642 83.0985 4.88156C83.191 4.97714 83.2373 5.10139 83.2373 5.25432V7.11812C83.2373 7.26149 83.191 7.38574 83.0985 7.49088C82.9966 7.58646 82.8763 7.63425 82.7374 7.63425H80.3072ZM80.3072 19.5196C80.1776 19.5196 80.0618 19.467 79.96 19.3618C79.8674 19.2663 79.8211 19.1516 79.8211 19.0178V9.58407C79.8211 9.4407 79.8674 9.32122 79.96 9.22564C80.0618 9.13006 80.1776 9.08227 80.3072 9.08227H82.7374C82.8763 9.08227 82.9966 9.13006 83.0985 9.22564C83.191 9.32122 83.2373 9.4407 83.2373 9.58407V19.0178C83.2373 19.1611 83.191 19.2806 83.0985 19.3762C82.9966 19.4718 82.8763 19.5196 82.7374 19.5196H80.3072ZM87.1257 19.5196C86.9868 19.5196 86.8711 19.4718 86.7785 19.3762C86.6767 19.2806 86.6258 19.1611 86.6258 19.0178V11.8063H85.1676C85.0288 11.8063 84.9084 11.7633 84.8066 11.6773C84.714 11.5817 84.6677 11.4574 84.6677 11.3045V9.58407C84.6677 9.4407 84.714 9.32122 84.8066 9.22564C84.9084 9.13006 85.0288 9.08227 85.1676 9.08227H86.6258V8.48012C86.6258 7.14201 87.0007 6.17188 87.7506 5.56973C88.5005 4.96758 89.5791 4.6665 90.9863 4.6665H92.5139C92.662 4.6665 92.7823 4.71429 92.8749 4.80987C92.9768 4.90545 93.0277 5.02493 93.0277 5.1683V6.88873C93.0277 7.04165 92.9768 7.16591 92.8749 7.26149C92.7823 7.34751 92.662 7.39052 92.5139 7.39052H91.139C90.7224 7.39052 90.4262 7.49088 90.2503 7.69159C90.0744 7.88275 89.9864 8.17905 89.9864 8.58048V9.08227H92.3195C92.4676 9.08227 92.5879 9.13006 92.6805 9.22564C92.7823 9.32122 92.8333 9.4407 92.8333 9.58407V11.3045C92.8333 11.4574 92.7823 11.5817 92.6805 11.6773C92.5879 11.7633 92.4676 11.8063 92.3195 11.8063H89.9864V19.0178C89.9864 19.1516 89.9401 19.2663 89.8476 19.3618C89.7642 19.467 89.6485 19.5196 89.5004 19.5196H87.1257ZM96.0689 23.3332C95.9578 23.3332 95.8606 23.2949 95.7773 23.2185C95.7033 23.1325 95.6662 23.0321 95.6662 22.9174C95.6662 22.8218 95.6801 22.731 95.7079 22.645L97.2355 18.8744L93.5137 9.77045C93.4674 9.65575 93.4443 9.57929 93.4443 9.54106C93.4721 9.40725 93.5276 9.29733 93.6109 9.21131C93.6943 9.12529 93.7961 9.08227 93.9165 9.08227H96.2356C96.5041 9.08227 96.6892 9.22087 96.7911 9.49805L98.9574 15.2041L101.165 9.49805C101.295 9.22087 101.49 9.08227 101.749 9.08227H104.04C104.16 9.08227 104.262 9.12529 104.346 9.21131C104.429 9.29733 104.471 9.39291 104.471 9.49805C104.471 9.59363 104.457 9.68443 104.429 9.77045L98.9297 22.9174C98.8001 23.1946 98.601 23.3332 98.3325 23.3332H96.0689Z" fill="black"/>
<path d="M2.38802 7.34365C2.92858 7.45211 3.48874 7.3346 3.94543 7.01694C4.40212 6.69927 4.71799 6.20743 4.82364 5.64947L4.82492 5.6498C4.84922 5.52898 5.01454 5.04799 5.25532 4.75583C5.37459 4.60497 5.4961 4.49834 5.63232 4.42505C5.77205 4.35309 5.93225 4.29333 6.24818 4.29003C6.42053 4.29564 6.57305 4.32998 6.93439 4.5911C7.46679 4.97074 8.18369 5.85778 9.10812 6.79796C9.57913 7.26475 10.1218 7.75102 10.8166 8.15047C11.5047 8.54859 12.3751 8.84273 13.3213 8.8391H13.3488C15.1142 8.8391 16.4422 8.38617 17.3317 7.54238C18.0864 6.82833 18.3198 5.99808 18.3777 5.54416C18.4416 5.41475 18.5187 5.2837 18.606 5.17773C18.7259 5.02686 18.8474 4.92089 18.984 4.84662C19.1227 4.77498 19.2839 4.71556 19.5995 4.71226C19.7715 4.71787 19.925 4.75187 20.2854 5.01333C20.8178 5.39198 21.535 6.27967 22.4598 7.21985C22.9308 7.68698 23.4741 8.17291 24.1686 8.57236C24.8567 8.97115 25.7271 9.26462 26.6733 9.26132H26.7011C28.4665 9.26132 29.7945 8.8084 30.684 7.96428C31.5813 7.11488 31.7444 6.0948 31.7479 5.74752C31.7591 5.466 31.7165 5.18496 31.6225 4.92044C31.5285 4.65592 31.385 4.41311 31.2001 4.20588C31.0152 3.99864 30.7925 3.83105 30.5449 3.71266C30.2972 3.59427 30.0294 3.52741 29.7567 3.5159C29.3304 3.49758 28.909 3.61522 28.5497 3.85284C28.1904 4.09045 27.9107 4.43651 27.7486 4.84398C27.575 4.89911 27.2383 4.97008 26.6733 4.96942C26.4744 4.96381 26.3087 4.92155 25.9442 4.66076C25.4064 4.28211 24.6917 3.40267 23.7778 2.46678C23.3123 2.00263 22.7767 1.51768 22.0898 1.11658C21.4094 0.716475 20.5438 0.417385 19.6001 0.421677C18.5197 0.416395 17.5265 0.72968 16.76 1.21925C15.5996 1.95872 14.9662 2.97384 14.601 3.74863C14.4955 3.9755 14.4016 4.20789 14.3196 4.44486C14.1306 4.49504 13.8125 4.54885 13.3216 4.54819C13.1227 4.54257 12.9571 4.49999 12.5926 4.23985C12.055 3.86088 11.3401 2.9811 10.4262 2.04587C9.96029 1.58073 9.42501 1.09644 8.73784 0.695017C8.05771 0.29491 7.19179 -0.00384882 6.2485 0.000112632C5.16706 -0.0068199 4.17452 0.306795 3.40805 0.796034C2.24764 1.53517 1.61387 2.5503 1.24871 3.32542C0.884177 4.11045 0.768423 4.70565 0.744122 4.8278C0.692036 5.10443 0.693241 5.38894 0.747668 5.66509C0.802095 5.94124 0.908677 6.20362 1.06133 6.43724C1.21398 6.67087 1.40971 6.87116 1.63735 7.02668C1.86498 7.1822 2.12006 7.28991 2.38802 7.34365ZM2.3877 16.7128C2.92833 16.8213 3.48857 16.7039 3.9454 16.3863C4.40224 16.0687 4.71833 15.5769 4.82428 15.019H4.82492C4.84922 14.8981 5.01454 14.4168 5.25564 14.1253C5.37491 13.9745 5.49642 13.8685 5.63232 13.7945C5.77173 13.7232 5.93289 13.6628 6.2485 13.6599C6.42053 13.6648 6.57369 13.6995 6.9347 13.9603C7.46647 14.3402 8.18401 15.2269 9.10844 16.1671C9.57977 16.6339 10.123 17.1192 10.8176 17.519C11.5009 17.9144 12.3639 18.2076 13.3024 18.2076H13.3219C15.1014 18.2122 16.4383 17.7596 17.3324 16.9112C18.0861 16.1978 18.3201 15.3686 18.3783 14.9143C18.441 14.7834 18.5178 14.6603 18.6073 14.5472C18.7272 14.3964 18.8487 14.2901 18.9852 14.2161C19.124 14.1445 19.2852 14.0844 19.6008 14.0817C19.7728 14.0864 19.9263 14.1214 20.287 14.3828C20.8188 14.7615 21.536 15.6485 22.4607 16.5887C22.9317 17.0555 23.475 17.5417 24.1695 17.9412C24.8577 18.3396 25.7281 18.6335 26.6742 18.6298H26.702C28.4674 18.6298 29.7948 18.1769 30.685 17.3334C31.5822 16.4844 31.7453 15.4636 31.7488 15.1167C31.7714 14.5481 31.5744 13.9936 31.2009 13.5751C30.8275 13.1566 30.3084 12.9084 29.7577 12.8851C29.3315 12.8668 28.9101 12.9844 28.5509 13.2218C28.1916 13.4593 27.9119 13.8052 27.7496 14.2125C27.5763 14.2676 27.2392 14.3386 26.6742 14.3379C26.4753 14.3323 26.3097 14.2901 25.9452 14.0293C25.4073 13.6503 24.6927 12.7715 23.7788 11.8356C23.3126 11.3708 22.7776 10.8862 22.0908 10.4854C21.4103 10.0853 20.5441 9.78621 19.6011 9.78985C18.5206 9.78489 17.5274 10.0985 16.761 10.5877C15.6006 11.3272 14.9671 12.342 14.6019 13.1165C14.4966 13.3433 14.4028 13.5757 14.3209 13.8127C14.1319 13.8629 13.8137 13.9167 13.3226 13.9164C13.1243 13.9107 12.9584 13.8682 12.5938 13.6077C12.056 13.2287 11.341 12.3496 10.4271 11.4137C9.96093 10.9489 9.42597 10.4643 8.73944 10.0632C8.05867 9.66374 7.19307 9.36432 6.24946 9.36795C5.16866 9.36333 4.1758 9.67661 3.40965 10.1659C2.24828 10.9047 1.61579 11.9198 1.2503 12.6949C0.885456 13.4799 0.770342 14.0751 0.745401 14.1976C0.693084 14.4741 0.694076 14.7585 0.748318 15.0346C0.80256 15.3107 0.908989 15.5731 1.06152 15.8067C1.21405 16.0403 1.40968 16.2406 1.63724 16.396C1.8648 16.5515 2.11981 16.6592 2.3877 16.7128ZM29.7564 22.2542C29.3301 22.2361 28.9088 22.3539 28.5496 22.5915C28.1903 22.829 27.9106 23.175 27.7483 23.5823C27.575 23.6371 27.2383 23.7087 26.6729 23.7081C26.4747 23.7018 26.3084 23.6599 25.9445 23.3994C25.4067 23.0201 24.6914 22.141 23.7775 21.2048C23.3119 20.74 22.777 20.2557 22.0901 19.8542C21.4097 19.4541 20.5434 19.1554 19.6005 19.1587C18.5193 19.1541 17.5268 19.4677 16.7597 19.9569C15.5993 20.696 14.9665 21.7112 14.6007 22.4856C14.495 22.7128 14.401 22.9455 14.319 23.1828C14.13 23.2327 13.8121 23.2865 13.3216 23.2862C13.1234 23.2796 12.9577 23.238 12.5929 22.9775C12.055 22.5985 11.3404 21.7188 10.4262 20.7832C9.96029 20.3187 9.42533 19.8338 8.73848 19.432C8.05803 19.0322 7.19211 18.7328 6.2485 18.7371C5.1677 18.7322 4.17484 19.0454 3.40805 19.535C2.24732 20.2742 1.61451 21.2889 1.24934 22.0641C0.884497 22.8488 0.769063 23.4443 0.744441 23.5664C0.639242 24.1251 0.753303 24.704 1.06153 25.1758C1.36976 25.6476 1.84691 25.9737 2.38802 26.0823C2.92861 26.1908 3.48881 26.0733 3.9456 25.7557C4.40238 25.4382 4.71841 24.9464 4.82428 24.3884L4.82556 24.3888C4.85018 24.2676 5.01518 23.7866 5.25564 23.4942C5.37523 23.3433 5.49674 23.2376 5.63296 23.1634C5.77237 23.0917 5.93289 23.0317 6.2485 23.029C6.42021 23.034 6.57369 23.0686 6.93439 23.3298C7.46679 23.7087 8.18433 24.5961 9.10844 25.5369C9.57945 26.0034 10.1224 26.4897 10.8172 26.8894C11.5057 27.2876 12.3758 27.5817 13.3216 27.5781H13.3494C15.1152 27.5781 16.4431 27.1251 17.3327 26.281C18.0864 25.567 18.3205 24.7367 18.3787 24.2831C18.4412 24.1523 18.518 24.0293 18.6076 23.9164C18.7266 23.7655 18.8487 23.6592 18.9846 23.5853C19.124 23.5136 19.2845 23.4535 19.6008 23.4509C19.7728 23.4559 19.9257 23.4905 20.2867 23.7513C20.8184 24.1306 21.5357 25.0183 22.4604 25.9585C22.9314 26.4253 23.4747 26.9116 24.1692 27.311C24.8573 27.7098 25.7277 28.0033 26.6739 28H26.7017C28.4674 28 29.7961 27.547 30.6853 26.7026C31.5819 25.8535 31.7456 24.8328 31.7492 24.4858C31.7711 23.9172 31.5736 23.3628 31.2 22.9444C30.8264 22.526 30.3072 22.2777 29.7564 22.2542Z" fill="url(#paint0_linear_201_17530)"/>
<defs>
<linearGradient id="paint0_linear_201_17530" x1="0.328822" y1="-0.152389" x2="28.7789" y2="12.6978" gradientUnits="userSpaceOnUse">
<stop stop-color="#288B58"/>
<stop offset="1" stop-color="#1522F1"/>
</linearGradient>
</defs>
</svg>
