<svg width="28" height="28" viewBox="0 0 28 28" fill="none" xmlns="http://www.w3.org/2000/svg">
<rect width="28" height="28" rx="6" fill="#E2E5EC"/>
<path d="M23.3276 7.11843C23.3277 6.96747 23.2881 6.81918 23.2128 6.68865C23.1375 6.55813 23.0293 6.45005 22.899 6.3754C22.7688 6.30076 22.6213 6.26223 22.4715 6.26373C22.3216 6.26523 22.1749 6.30671 22.0462 6.38394C21.5497 6.6817 21.0152 6.90973 20.4574 7.0617C19.661 6.37303 18.6451 5.99618 17.5956 6.00003C16.4442 6.00136 15.3384 6.45351 14.5116 7.261C13.6849 8.06849 13.2019 9.16811 13.1648 10.3277C10.8949 9.96294 8.83771 8.76918 7.3854 6.97404C7.2979 6.86706 7.18615 6.78286 7.05957 6.72853C6.933 6.6742 6.79531 6.65133 6.65813 6.66186C6.52102 6.67324 6.38873 6.7181 6.27269 6.79255C6.15665 6.86701 6.06036 6.96883 5.99214 7.0892C5.64227 7.70441 5.44133 8.39409 5.40564 9.10223C5.36994 9.81037 5.5005 10.517 5.78671 11.1648L5.78505 11.1664C5.65642 11.2463 5.55026 11.358 5.47673 11.491C5.4032 11.624 5.36476 11.7737 5.36508 11.926C5.36353 12.0515 5.371 12.1771 5.38745 12.3016C5.47409 13.377 5.94709 14.3836 6.71776 15.1327C6.66548 15.233 6.63357 15.3429 6.6239 15.4558C6.61423 15.5687 6.62699 15.6825 6.66143 15.7904C6.99743 16.8452 7.71195 17.7357 8.66519 18.2876C7.69673 18.665 6.65103 18.7965 5.62021 18.6707C5.42942 18.6466 5.23616 18.6885 5.07213 18.7896C4.9081 18.8907 4.78304 19.045 4.71747 19.2271C4.65189 19.4093 4.64969 19.6084 4.71123 19.792C4.77277 19.9756 4.89439 20.1326 5.05615 20.2374C6.829 21.3879 8.89321 21.9996 11.002 21.9993C13.3933 22.0264 15.7265 21.2564 17.6386 19.8092C19.5507 18.3619 20.9346 16.3184 21.5748 13.9967C21.8743 12.9853 22.0272 11.9356 22.0288 10.8802C22.0288 10.8242 22.0288 10.7667 22.028 10.7091C22.4708 10.2278 22.8139 9.66235 23.0371 9.04578C23.2602 8.42922 23.359 7.77396 23.3276 7.11843ZM20.5228 9.86358C20.3827 10.0305 20.3118 10.2454 20.3249 10.4637C20.3332 10.6047 20.3323 10.7466 20.3323 10.8802C20.3306 11.7721 20.2009 12.659 19.9472 13.5135C19.4242 15.489 18.2585 17.2305 16.6366 18.4591C15.0148 19.6878 13.0306 20.3325 11.002 20.29C10.2732 20.2902 9.54703 20.2039 8.83834 20.0329C9.74204 19.7394 10.587 19.287 11.3341 18.6966C11.4717 18.5875 11.5724 18.4381 11.6224 18.2689C11.6724 18.0998 11.6692 17.9192 11.6133 17.752C11.5574 17.5847 11.4515 17.439 11.3102 17.3348C11.1688 17.2307 10.9989 17.1731 10.8238 17.1701C10.1188 17.159 9.44559 16.8726 8.94599 16.3713C9.07273 16.3471 9.19864 16.317 9.32372 16.2812C9.50694 16.2286 9.66728 16.1155 9.77892 15.9599C9.89056 15.8044 9.94701 15.6155 9.93916 15.4237C9.93132 15.2319 9.85965 15.0484 9.73569 14.9026C9.61172 14.7569 9.44269 14.6574 9.25579 14.6202C8.84656 14.5388 8.46148 14.3634 8.13048 14.1076C7.79947 13.8518 7.53147 13.5225 7.3473 13.1454C7.5006 13.1665 7.65488 13.1796 7.80951 13.1846C7.99322 13.1874 8.17306 13.1313 8.323 13.0243C8.47295 12.9173 8.58525 12.765 8.64365 12.5895C8.69962 12.4124 8.69674 12.2217 8.63545 12.0464C8.57416 11.8711 8.45781 11.7207 8.30403 11.618C7.93094 11.3675 7.62533 11.0278 7.41455 10.6291C7.20378 10.2304 7.09444 9.78529 7.09632 9.33358C7.09632 9.27683 7.09797 9.22007 7.10129 9.16415C9.00236 10.9506 11.4682 12.0038 14.0643 12.138C14.1954 12.1432 14.3259 12.1183 14.446 12.0653C14.5661 12.0122 14.6727 11.9323 14.7576 11.8317C14.8418 11.7301 14.9013 11.6101 14.9317 11.4814C14.962 11.3526 14.9622 11.2185 14.9324 11.0897C14.8839 10.8857 14.8591 10.6768 14.8586 10.467C14.8594 9.73588 15.148 9.03491 15.6611 8.51791C16.1742 8.00091 16.8699 7.71013 17.5955 7.70936C17.9688 7.70835 18.3383 7.78534 18.6806 7.93546C19.0229 8.08558 19.3307 8.30558 19.5843 8.58156C19.6822 8.68761 19.8053 8.76668 19.942 8.81124C20.0787 8.85581 20.2245 8.86438 20.3654 8.83616C20.7139 8.76784 21.0573 8.67582 21.3934 8.56073C21.1642 9.03334 20.8712 9.47177 20.5228 9.86358Z" fill="#1F1F43"/>
</svg>
